<svg width="17" height="21" viewBox="0 0 17 21" fill="none" xmlns="http://www.w3.org/2000/svg">
<path d="M15.1667 0C15.765 0 16.2581 0.45038 16.3256 1.03061L16.3334 1.16667V19.8333C16.3334 20.4777 15.8111 21 15.1667 21C14.5684 21 14.0753 20.5497 14.0079 19.9694L14 19.8333V14H12.8334C12.2351 14 11.7419 13.5497 11.6745 12.9694L11.6667 12.8333V5.83333C11.6667 3.256 13.4167 0 15.1667 0ZM8.16669 0C8.76496 0 9.25811 0.45038 9.32554 1.03061L9.33336 1.16667V7C9.33336 9.1742 7.84655 11.0011 5.83428 11.5194L5.83335 19.8333C5.83335 20.4777 5.31101 21 4.66668 21C4.06836 21 3.57525 20.5497 3.50786 19.9694L3.50001 19.8333L3.50029 11.5197C1.56193 11.0209 0.110892 9.30813 0.00606658 7.24015L0 7V1.16667C0 0.52234 0.522341 0 1.16667 0C1.76498 0 2.2581 0.45038 2.32549 1.03061L2.33334 1.16667V7C2.33334 7.86362 2.80254 8.6177 3.49993 9.02113L3.50001 1.16667C3.50001 0.52234 4.02235 0 4.66668 0C5.26499 0 5.75811 0.45038 5.8255 1.03061L5.83335 1.16667L5.83463 9.02043C6.4777 8.64792 6.92652 7.97703 6.99185 7.19713L7.00002 7V1.16667C7.00002 0.52234 7.52234 0 8.16669 0Z" fill="white"/>
</svg>
