<svg width="25" height="32" viewBox="0 0 25 32" fill="none" xmlns="http://www.w3.org/2000/svg">
<path d="M22.7067 0C23.6024 0 24.3407 0.674283 24.4417 1.54297L24.4534 1.74667V29.6933C24.4534 30.658 23.6714 31.44 22.7067 31.44C21.811 31.44 21.0727 30.7658 20.9718 29.897L20.9601 29.6933V20.96H19.2134C18.3177 20.96 17.5794 20.2858 17.4784 19.417L17.4667 19.2133V8.73333C17.4667 4.8747 20.0867 0 22.7067 0ZM12.2267 0C13.1224 0 13.8607 0.674283 13.9617 1.54297L13.9734 1.74667V10.48C13.9734 13.7351 11.7474 16.4702 8.73475 17.2462L8.73336 29.6933C8.73336 30.658 7.95134 31.44 6.98669 31.44C6.09092 31.44 5.35266 30.7658 5.25177 29.897L5.24001 29.6933L5.24043 17.2466C2.33843 16.4999 0.166021 13.9356 0.00908253 10.8395L0 10.48V1.74667C0 0.782018 0.78202 0 1.74667 0C2.64243 0 3.3807 0.674283 3.48159 1.54297L3.49334 1.74667V10.48C3.49334 11.773 4.1958 12.9019 5.23989 13.5059L5.24001 1.74667C5.24001 0.782018 6.02203 0 6.98669 0C7.88245 0 8.62071 0.674283 8.7216 1.54297L8.73336 1.74667L8.73528 13.5049C9.69804 12.9472 10.37 11.9427 10.4678 10.7751L10.48 10.48V1.74667C10.48 0.782018 11.262 0 12.2267 0Z" fill="#A4C76C"/>
</svg>
