<svg width="32" height="33" viewBox="0 0 32 33" fill="none" xmlns="http://www.w3.org/2000/svg">
<path d="M11.7956 0.828516C13.105 -0.276172 15.02 -0.276172 16.3294 0.828516L26.8762 9.72623C27.6681 10.3942 28.125 11.3774 28.125 12.4133V15.6993C27.1323 14.6864 25.7489 14.0579 24.2188 14.0579C21.1984 14.0579 18.75 16.5064 18.75 19.5267V20.3079C18.5723 19.4328 17.7705 18.7701 16.8486 18.746H11.2764C10.2216 18.7735 9.375 19.6371 9.375 20.6985V26.9526C9.375 28.4628 8.15078 29.687 6.64062 29.687H2.73438C1.22422 29.687 0 28.4628 0 26.9526V12.4133C0 11.3774 0.456891 10.3942 1.24869 9.72623L11.7956 0.828516ZM28.125 19.5267C28.125 21.684 26.3761 23.4329 24.2188 23.4329C22.0614 23.4329 20.3125 21.684 20.3125 19.5267C20.3125 17.3693 22.0614 15.6204 24.2188 15.6204C26.3761 15.6204 28.125 17.3693 28.125 19.5267ZM31.25 27.9251C31.25 30.3571 29.2411 32.8079 24.2188 32.8079C19.1964 32.8079 17.1875 30.3664 17.1875 27.9251V27.7642C17.1875 26.2343 18.4277 24.9954 19.9573 24.9954H28.4802C30.0098 24.9954 31.25 26.2345 31.25 27.7642V27.9251Z" fill="#ECBB1A"/>
</svg>
