<svg width="20" height="21" viewBox="0 0 20 21" fill="none" xmlns="http://www.w3.org/2000/svg">
<path d="M7.5492 0.53025C8.3872 -0.17675 9.6128 -0.17675 10.4508 0.53025L17.2008 6.22479C17.7076 6.6523 18 7.28154 18 7.94454V10.0476C17.3647 9.39927 16.4793 8.99707 15.5 8.99707C13.567 8.99707 12 10.5641 12 12.4971V12.9971C11.8863 12.437 11.3731 12.0129 10.7831 11.9975H7.2169C6.54184 12.0151 6 12.5678 6 13.2471V17.2497C6 18.2162 5.2165 18.9997 4.25 18.9997H1.75C0.7835 18.9997 0 18.2162 0 17.2497V7.94454C0 7.28154 0.29241 6.6523 0.79916 6.22479L7.5492 0.53025ZM18 12.4971C18 13.8778 16.8807 14.9971 15.5 14.9971C14.1193 14.9971 13 13.8778 13 12.4971C13 11.1164 14.1193 9.99707 15.5 9.99707C16.8807 9.99707 18 11.1164 18 12.4971ZM20 17.8721C20 19.4286 18.7143 20.9971 15.5 20.9971C12.2857 20.9971 11 19.4345 11 17.8721V17.7691C11 16.79 11.7937 15.9971 12.7727 15.9971H18.2273C19.2063 15.9971 20 16.7901 20 17.7691V17.8721Z" fill="white"/>
</svg>
