<svg width="21" height="21" viewBox="0 0 21 21" fill="none" xmlns="http://www.w3.org/2000/svg">
<path d="M8.99846 15.4989C8.99846 14.2096 9.37365 13.008 10.0209 11.9974L2.24936 11.998C1.00707 11.998 0 13.005 0 14.2474V15.1675C0 15.7397 0.178439 16.2977 0.510472 16.7637C2.05297 18.9285 4.57649 20.0009 7.99824 20.0009C8.92975 20.0009 9.79484 19.9215 10.5905 19.7613C9.59879 18.62 8.99846 17.1295 8.99846 15.4989ZM12.9993 5.00111C12.9993 2.23908 10.7602 0 7.99824 0C5.23618 0 2.99711 2.23908 2.99711 5.00111C2.99711 7.76316 5.23618 10.0022 7.99824 10.0022C10.7602 10.0022 12.9993 7.76316 12.9993 5.00111ZM21.0011 15.4988C21.0011 12.4606 18.5381 9.99755 15.4999 9.99755C12.4616 9.99755 9.99868 12.4606 9.99868 15.4988C9.99868 18.5371 12.4616 21 15.4999 21C18.5381 21 21.0011 18.5371 21.0011 15.4988ZM15.41 12.0061L15.4999 11.998L15.5897 12.0061C15.7939 12.0431 15.9549 12.2041 15.9919 12.4083L16 12.4981L15.999 14.9987H18.5044L18.5944 15.0068C18.7984 15.0438 18.9594 15.2048 18.9965 15.409L19.0046 15.4988L18.9965 15.5887C18.9594 15.7928 18.7984 15.9538 18.5944 15.9909L18.5044 15.9989H15.999L16 18.4994L15.9919 18.5894C15.9549 18.7935 15.7939 18.9544 15.5897 18.9916L15.4999 18.9996L15.41 18.9916C15.2058 18.9544 15.0449 18.7935 15.0078 18.5894L14.9998 18.4994L14.9988 15.9989H12.5031L12.4132 15.9909C12.2091 15.9538 12.0481 15.7928 12.011 15.5887L12.003 15.4988L12.011 15.409C12.0481 15.2048 12.2091 15.0438 12.4132 15.0068L12.5031 14.9987H14.9988L14.9998 12.4981L15.0078 12.4083C15.0449 12.2041 15.2058 12.0431 15.41 12.0061Z" fill="white"/>
</svg>
