<svg width="32" height="32" viewBox="0 0 32 32" fill="none" xmlns="http://www.w3.org/2000/svg">
<path d="M13.7567 23.0626C13.7567 21.1441 14.315 19.3562 15.2781 17.8523L3.71391 17.8532C1.86536 17.8532 0.366821 19.3517 0.366821 21.2004V22.5695C0.366821 23.421 0.632342 24.2512 1.12641 24.9446C3.42168 28.166 7.17672 29.7617 12.2683 29.7617C13.6544 29.7617 14.9417 29.6435 16.1257 29.4052C14.65 27.7068 13.7567 25.489 13.7567 23.0626ZM19.7101 7.44175C19.7101 3.33179 16.3783 0 12.2683 0C8.15835 0 4.82657 3.33179 4.82657 7.44175C4.82657 11.5517 8.15835 14.8835 12.2683 14.8835C16.3783 14.8835 19.7101 11.5517 19.7101 7.44175ZM31.6168 23.0624C31.6168 18.5416 27.9518 14.8765 23.4309 14.8765C18.9099 14.8765 15.245 18.5416 15.245 23.0624C15.245 27.5835 18.9099 31.2484 23.4309 31.2484C27.9518 31.2484 31.6168 27.5835 31.6168 23.0624ZM23.2971 17.8653L23.4309 17.8532L23.5646 17.8653C23.8684 17.9203 24.108 18.16 24.163 18.4637L24.1751 18.5974L24.1736 22.3183H27.9018L28.0356 22.3303C28.3392 22.3854 28.5788 22.625 28.6339 22.9288L28.6459 23.0624L28.6339 23.1962C28.5788 23.5 28.3392 23.7395 28.0356 23.7947L27.9018 23.8066H24.1736L24.1751 27.5275L24.163 27.6613C24.108 27.9651 23.8684 28.2045 23.5646 28.2598L23.4309 28.2717L23.2971 28.2598C22.9934 28.2045 22.7539 27.9651 22.6987 27.6613L22.6868 27.5275L22.6853 23.8066H18.9717L18.8379 23.7947C18.5341 23.7395 18.2947 23.5 18.2394 23.1962L18.2275 23.0624L18.2394 22.9288C18.2947 22.625 18.5341 22.3854 18.8379 22.3303L18.9717 22.3183H22.6853L22.6868 18.5974L22.6987 18.4637C22.7539 18.16 22.9934 17.9203 23.2971 17.8653Z" fill="#A4C76C"/>
</svg>
