<svg width="18" height="21" viewBox="0 0 18 21" fill="none" xmlns="http://www.w3.org/2000/svg">
<path d="M18.0006 5.50094C18.0006 2.46285 15.5378 0 12.4997 0C9.46158 0 6.99875 2.46285 6.99875 5.50094C6.99875 8.53903 9.46158 11.0019 12.4997 11.0019C15.5378 11.0019 18.0006 8.53903 18.0006 5.50094ZM13.0005 6.00104L13.0009 8.50498C13.0009 8.78117 12.777 9.00504 12.5008 9.00504C12.2247 9.00504 12.0007 8.78117 12.0007 8.50498L12.0003 6.00104H9.49478C9.21883 6.00104 8.9952 5.77714 8.9952 5.50095C8.9952 5.22477 9.21883 5.00087 9.49478 5.00087H12.0001L11.9996 2.4997C11.9996 2.22351 12.2236 1.99961 12.4997 1.99961C12.7759 1.99961 12.9998 2.22351 12.9998 2.4997L13.0003 5.00087H15.4968C15.7728 5.00087 15.9964 5.22477 15.9964 5.50095C15.9964 5.77714 15.7728 6.00104 15.4968 6.00104H13.0005ZM12.4997 12.0021C13.0164 12.0021 13.519 11.9417 14.0008 11.8279V20.2486C14.0008 20.8599 13.3088 21.2144 12.8126 20.8575L7.00035 16.6758L1.18822 20.8575C0.691999 21.2144 0 20.8599 0 20.2486V5.25005C0 3.45481 1.45533 1.99949 3.25056 1.99949H7.02116C6.37385 3.01014 5.99858 4.21171 5.99858 5.50094C5.99858 9.09146 8.90928 12.0021 12.4997 12.0021Z" fill="white"/>
</svg>
