<svg width="28" height="32" viewBox="0 0 28 32" fill="none" xmlns="http://www.w3.org/2000/svg">
<path d="M27.3058 8.2357C27.3058 3.68724 23.6186 0 19.0701 0C14.5216 0 10.8344 3.68724 10.8344 8.2357C10.8344 12.7842 14.5216 16.4714 19.0701 16.4714C23.6186 16.4714 27.3058 12.7842 27.3058 8.2357ZM19.8198 8.98441L19.8204 12.7332C19.8204 13.1467 19.4853 13.4818 19.0717 13.4818C18.6583 13.4818 18.323 13.1467 18.323 12.7332L18.3224 8.98441H14.5713C14.1582 8.98441 13.8234 8.6492 13.8234 8.23571C13.8234 7.82222 14.1582 7.48701 14.5713 7.48701H18.3221L18.3214 3.74241C18.3214 3.32891 18.6567 2.99371 19.0701 2.99371C19.4837 2.99371 19.8188 3.32891 19.8188 3.74241L19.8195 7.48701H23.5572C23.9703 7.48701 24.3052 7.82222 24.3052 8.23571C24.3052 8.6492 23.9703 8.98441 23.5572 8.98441H19.8198ZM19.0701 17.9688C19.8437 17.9688 20.5961 17.8785 21.3174 17.7081V30.315C21.3174 31.2302 20.2815 31.761 19.5385 31.2266L10.8368 24.966L2.1352 31.2266C1.39228 31.761 0.356262 31.2302 0.356262 30.315V7.86007C0.356262 5.17235 2.5351 2.99353 5.22281 2.99353H10.8679C9.89882 4.5066 9.33699 6.30553 9.33699 8.2357C9.33699 13.6112 13.6947 17.9688 19.0701 17.9688Z" fill="#A4C76C"/>
</svg>
