<svg width="36" height="33" viewBox="0 0 36 33" fill="none" xmlns="http://www.w3.org/2000/svg">
<path d="M13.3271 2.56407C12.0544 1.00098 10.1132 0 7.937 0C4.10007 0 0.989624 3.11044 0.989624 6.94737C0.989624 9.12356 1.99076 11.0649 3.55369 12.3375C3.01735 13.9163 2.72647 15.6083 2.72647 17.3684C2.72647 21.216 4.11659 24.7389 6.42197 27.4623L3.108 30.7763C2.5993 31.285 2.5993 32.1097 3.108 32.6184C3.6167 33.1271 4.4415 33.1271 4.9502 32.6184L8.26417 29.3045C10.9876 31.6098 14.5105 33 18.3581 33C22.2057 33 25.7285 31.6098 28.4519 29.3045L31.766 32.6184C32.2747 33.1271 33.0994 33.1271 33.6081 32.6184C34.1168 32.1097 34.1168 31.285 33.6081 30.7763L30.2942 27.4623C32.5995 24.7389 33.9897 21.216 33.9897 17.3684C33.9897 15.6083 33.6987 13.9163 33.1624 12.3376C34.7256 11.0649 35.7267 9.12363 35.7267 6.94737C35.7267 3.11044 32.6162 0 28.7793 0C26.603 0 24.6618 1.00101 23.3892 2.5641C21.8104 2.02775 20.1182 1.73684 18.3581 1.73684C16.5979 1.73684 14.9059 2.02773 13.3271 2.56407ZM7.937 2.60526C9.03288 2.60526 10.0348 3.01101 10.7998 3.68233C8.22592 5.10682 6.09645 7.23628 4.67196 9.81017C4.00055 9.04514 3.59489 8.0433 3.59489 6.94737C3.59489 4.54929 5.53892 2.60526 7.937 2.60526ZM25.9165 3.68238C26.6814 3.01101 27.6834 2.60526 28.7793 2.60526C31.1774 2.60526 33.1214 4.54929 33.1214 6.94737C33.1214 8.04332 32.7157 9.04527 32.0442 9.81028C30.6198 7.23638 28.4903 5.10689 25.9165 3.68238ZM17.0554 8.68421C17.7748 8.68421 18.3581 9.26742 18.3581 9.98684V17.3684H23.1344C23.8538 17.3684 24.437 17.9517 24.437 18.6711C24.437 19.3905 23.8538 19.9737 23.1344 19.9737H17.0554C16.336 19.9737 15.7528 19.3905 15.7528 18.6711V9.98684C15.7528 9.26742 16.336 8.68421 17.0554 8.68421Z" fill="#A4C76C"/>
</svg>
