<svg width="23" height="21" viewBox="0 0 23 21" fill="none" xmlns="http://www.w3.org/2000/svg">
<path d="M7.85113 1.63168C7.04123 0.636985 5.80593 0 4.42106 0C1.97937 0 0 1.97937 0 4.42105C0 5.8059 0.637085 7.04132 1.63168 7.85115C1.29037 8.85581 1.10526 9.93256 1.10526 11.0526C1.10526 13.5011 1.98988 15.7429 3.45695 17.476L1.34806 19.5849C1.02434 19.9087 1.02434 20.4334 1.34806 20.7572C1.67178 21.0809 2.19665 21.0809 2.52037 20.7572L4.62926 18.6483C6.36232 20.1153 8.60417 21 11.0526 21C13.5011 21 15.7429 20.1153 17.476 18.6483L19.585 20.7572C19.9087 21.0809 20.4335 21.0809 20.7572 20.7572C21.0809 20.4334 21.0809 19.9087 20.7572 19.5849L18.6483 17.476C20.1154 15.7429 21 13.5011 21 11.0526C21 9.93256 20.8149 8.85581 20.4736 7.85119C21.4683 7.04132 22.1054 5.80595 22.1054 4.42105C22.1054 1.97937 20.126 0 17.6843 0C16.2994 0 15.0641 0.637007 14.2543 1.6317C13.2496 1.29038 12.1727 1.10526 11.0526 1.10526C9.93257 1.10526 8.85582 1.29037 7.85113 1.63168ZM4.42106 1.65789C5.11843 1.65789 5.75604 1.9161 6.24284 2.3433C4.60492 3.24979 3.2498 4.6049 2.3433 6.24284C1.91604 5.756 1.6579 5.11846 1.6579 4.42105C1.6579 2.895 2.89501 1.65789 4.42106 1.65789ZM15.8625 2.34333C16.3493 1.9161 16.9869 1.65789 17.6843 1.65789C19.2104 1.65789 20.4475 2.895 20.4475 4.42105C20.4475 5.11847 20.1893 5.75608 19.762 6.2429C18.8556 4.60497 17.5004 3.24984 15.8625 2.34333ZM10.2237 5.52632C10.6815 5.52632 11.0526 5.89745 11.0526 6.35526V11.0526H14.0921C14.5499 11.0526 14.9211 11.4238 14.9211 11.8816C14.9211 12.3394 14.5499 12.7105 14.0921 12.7105H10.2237C9.76589 12.7105 9.39475 12.3394 9.39475 11.8816V6.35526C9.39475 5.89745 9.76589 5.52632 10.2237 5.52632Z" fill="white"/>
</svg>
