<svg width="231" height="60" viewBox="0 0 231 60" fill="none" xmlns="http://www.w3.org/2000/svg">
<path d="M33.1258 22.998C33.1277 24.9809 32.5183 26.9171 31.3791 28.5491C30.24 30.1811 28.6251 31.4313 26.7491 32.1331V22.998H26.7037C26.7037 22.098 26.3421 21.2349 25.6984 20.5987C25.0549 19.9623 24.1819 19.6047 23.2716 19.6047C22.3614 19.6047 21.4884 19.9623 20.8447 20.5987C20.2011 21.2349 19.8396 22.098 19.8396 22.998H19.794V49.433C19.794 54.9695 15.2114 59.4904 9.61146 59.3137C7.11754 59.2361 4.74611 58.2267 2.97486 56.4892C1.2036 54.7519 0.164157 52.4153 0.0659194 49.9504C0.0659194 49.8219 0.0659194 49.6966 0.0659194 49.568C0.06484 47.5856 0.675281 45.6501 1.81579 44.0196C2.95629 42.389 4.57262 41.1413 6.4491 40.4424V49.9504H6.47186C6.56606 50.7916 6.9708 51.5689 7.60856 52.1335C8.24631 52.698 9.07228 53.0102 9.92833 53.0102C10.7844 53.0102 11.6104 52.698 12.2481 52.1335C12.8859 51.5689 13.2906 50.7916 13.3848 49.9504H13.4043V23.1361C13.4043 17.5483 18.0909 12.9984 23.7364 13.2587C26.2671 13.3792 28.6539 14.4578 30.402 16.2711C32.1501 18.0843 33.1254 20.493 33.1258 22.998Z" fill="url(#paint0_linear_2359_13486)"/>
<path d="M45.3876 15.7045C49.9376 30.2862 40.2296 43.7431 26.7384 45.7418C26.7356 44.1074 27.1733 42.5017 28.0061 41.0899C28.8388 39.6781 30.0369 38.511 31.4771 37.7087C38.0878 34.052 41.9458 26.1153 39.2124 17.6903C37.8084 13.3653 33.0371 8.69331 28.6333 7.35983C17.1248 3.82527 6.55869 12.1796 6.44494 22.9986V29.3704C6.44179 30.4404 6.12437 31.4865 5.53123 32.3814C4.93811 33.2764 4.09481 33.9818 3.10384 34.4118H3.07134C1.98652 34.8971 0.956968 35.495 0 36.1953V22.9986C0 7.86751 14.7814 -3.85431 30.8434 1.18723C34.2724 2.26749 37.3862 4.15205 39.9188 6.67999C42.4515 9.20796 44.3278 12.3042 45.3876 15.7045Z" fill="url(#paint1_linear_2359_13486)"/>
<path d="M63.441 46.647C62.7386 46.4521 62.0854 46.1137 61.5234 45.6536L62.2483 44.008C62.7596 44.4038 63.3354 44.7102 63.9512 44.9143C64.6027 45.1423 65.2886 45.2602 65.9799 45.2632C66.6326 45.3065 67.2844 45.1658 67.8593 44.8574C68.0492 44.7476 68.2067 44.5903 68.3158 44.4012C68.4248 44.2123 68.4816 43.9982 68.4804 43.7806C68.4851 43.6295 68.4564 43.4793 68.3961 43.3403C68.3359 43.2014 68.2455 43.0774 68.1315 42.9768C67.8786 42.7503 67.5789 42.5808 67.2533 42.48C66.8966 42.3586 66.4133 42.2221 65.7998 42.0705C65.0903 41.9094 64.392 41.7029 63.7095 41.4525C63.1781 41.2452 62.7066 40.9119 62.3364 40.4818C61.9318 39.9769 61.7286 39.3429 61.7651 38.6997C61.7591 38.0904 61.9352 37.4927 62.2714 36.982C62.6522 36.4341 63.1849 36.0062 63.8053 35.7497C64.6012 35.4256 65.457 35.2705 66.3174 35.2948C67.0035 35.2946 67.6869 35.3826 68.3501 35.5563C68.9659 35.7105 69.5509 35.9669 70.0798 36.3147L69.4162 37.9602C68.9361 37.6735 68.4204 37.4492 67.8821 37.2929C67.3738 37.1453 66.8471 37.0688 66.3174 37.0654C65.6721 37.0191 65.0274 37.1672 64.4689 37.4901C64.2771 37.6119 64.1205 37.7806 64.0144 37.9799C63.9081 38.1793 63.8559 38.4025 63.8629 38.6276C63.8572 38.7696 63.8813 38.9112 63.9334 39.0437C63.9855 39.1761 64.0646 39.2964 64.1659 39.3974C64.4243 39.6165 64.7241 39.7828 65.0481 39.8864C65.4007 40.004 65.8879 40.1406 66.5016 40.2922C67.2036 40.4451 67.8932 40.6491 68.5648 40.9026C69.0986 41.1095 69.5728 41.4428 69.9456 41.8733C70.3507 42.3693 70.5557 42.9961 70.5208 43.6326C70.5279 44.2403 70.3502 44.8361 70.0108 45.3427C69.6302 45.8882 69.0971 46.3126 68.4767 46.5635C67.6794 46.8878 66.8224 47.0427 65.9608 47.0186C65.1068 47.0216 64.257 46.8963 63.441 46.647Z" fill="white"/>
<path d="M77.2061 37.2512H73.4591V35.4578H83.0471V37.2512H79.3001V46.8595H77.2061V37.2512Z" fill="white"/>
<path d="M88.1113 45.6953C87.2418 44.8106 86.8059 43.5467 86.8035 41.9037V35.4578H88.9052V41.8088C88.9052 44.0459 89.8625 45.1646 91.7777 45.1646C93.6928 45.1646 94.6451 44.0459 94.6348 41.8088V35.4578H96.702V41.9037C96.702 43.5543 96.2687 44.8182 95.4018 45.6953C94.5352 46.5725 93.3219 47.0148 91.7623 47.0224C90.2 47.0224 88.9832 46.5801 88.1113 45.6953Z" fill="white"/>
<path d="M102.136 35.4571H107.079C108.191 35.4359 109.292 35.6789 110.289 36.1661C111.197 36.6116 111.955 37.3069 112.472 38.1681C112.98 39.0846 113.246 40.1129 113.246 41.158C113.246 42.203 112.98 43.2312 112.472 44.1477C111.955 45.0091 111.197 45.7043 110.289 46.1497C109.292 46.6369 108.191 46.8801 107.079 46.8588H102.136V35.4571ZM106.96 45.0842C107.719 45.099 108.47 44.9339 109.15 44.6026C109.761 44.2988 110.267 43.8224 110.604 43.2338C110.936 42.5967 111.11 41.89 111.11 41.173C111.11 40.456 110.936 39.7495 110.604 39.1124C110.267 38.5239 109.761 38.0473 109.15 37.7434C108.469 37.4137 107.719 37.2498 106.96 37.2657H104.218V45.0842H106.96Z" fill="white"/>
<path d="M126.402 45.0849V46.8595H117.926V35.4578H126.176V37.2323H120.039V40.1974H125.497V41.9415H120.024V45.0849H126.402Z" fill="white"/>
<path d="M141.255 35.4578V46.8595H139.525L133.293 39.1395V46.8595H131.21V35.4578H132.94L139.172 43.1891V35.4578H141.255Z" fill="white"/>
<path d="M149.049 37.2512H145.306V35.4578H154.894V37.2512H151.151V46.8595H149.049V37.2512Z" fill="white"/>
<path d="M159.808 46.6472C159.106 46.4514 158.453 46.1131 157.89 45.6538L158.619 44.0082C159.129 44.4053 159.705 44.7119 160.322 44.9143C160.972 45.1423 161.657 45.2602 162.347 45.2632C162.999 45.3068 163.651 45.1661 164.226 44.8574C164.416 44.7479 164.575 44.5907 164.684 44.4018C164.794 44.2127 164.851 43.9986 164.851 43.7806C164.855 43.6297 164.826 43.4797 164.766 43.3409C164.705 43.2022 164.615 43.078 164.502 42.9768C164.248 42.7512 163.949 42.5818 163.624 42.48C163.267 42.3588 162.784 42.2223 162.17 42.0705C161.461 41.9106 160.762 41.7042 160.08 41.4525C159.548 41.2464 159.076 40.9127 158.707 40.4819C158.301 39.9775 158.096 39.3435 158.132 38.6997C158.125 38.0898 158.303 37.4918 158.642 36.9822C159.022 36.4333 159.555 36.0053 160.176 35.7499C160.97 35.4253 161.825 35.2703 162.684 35.2948C163.372 35.2944 164.056 35.3825 164.721 35.5565C165.336 35.7098 165.919 35.9664 166.447 36.3149L165.795 37.949C165.314 37.6622 164.799 37.4379 164.26 37.2816C163.751 37.1346 163.223 37.0581 162.692 37.0542C162.046 37.0078 161.402 37.1559 160.843 37.4788C160.652 37.6012 160.496 37.7701 160.39 37.9692C160.284 38.1684 160.231 38.3913 160.237 38.6163C160.232 38.7668 160.261 38.9166 160.321 39.0549C160.382 39.1932 160.472 39.3166 160.586 39.4164C160.843 39.6357 161.142 39.8019 161.465 39.9056C161.821 40.0231 162.304 40.1595 162.918 40.3112C163.609 40.4633 164.289 40.6648 164.951 40.9142C165.484 41.1229 165.957 41.4558 166.331 41.8848C166.736 42.3812 166.939 43.008 166.903 43.6442C166.909 44.2511 166.733 44.8463 166.397 45.3542C166.014 45.8975 165.481 46.3213 164.863 46.5751C164.064 46.8989 163.206 47.0539 162.343 47.0302C161.483 47.0305 160.628 46.9013 159.808 46.6472Z" fill="white"/>
<path d="M71.1114 18.6837C70.851 19.2155 70.4721 19.6823 70.0031 20.0486C69.5117 20.4243 68.9537 20.7059 68.3578 20.8791C67.7044 21.0707 67.0258 21.1653 66.3442 21.1595H63.7747V25.2622H61.5234V12.5032H66.6127C67.3037 12.4946 67.9914 12.597 68.6492 12.8065C69.2154 12.9868 69.7378 13.2812 70.1833 13.671C70.6054 14.0447 70.9393 14.5055 71.1613 15.0209C71.3959 15.5806 71.5121 16.1819 71.5026 16.7878C71.5194 17.4409 71.3858 18.0892 71.1114 18.6837ZM68.4536 15.1043C67.8604 14.6929 67.1447 14.49 66.4209 14.5279H63.7747V19.1386H66.4209C67.1572 19.1772 67.8829 18.9525 68.4651 18.5054C68.7099 18.301 68.9044 18.0442 69.0339 17.7545C69.1635 17.4648 69.2246 17.1498 69.213 16.8333C69.2364 16.506 69.1796 16.1779 69.0474 15.8769C68.9152 15.5759 68.7116 15.3108 68.4536 15.1043Z" fill="white"/>
<path d="M91.7221 25.2621H89.3368L88.029 22.1832H81.9155L80.5848 25.2621H78.2645L83.9405 12.4121H86.0422L91.7221 25.2621ZM84.957 15.0928L82.7441 20.1964H87.1852L84.957 15.0928Z" fill="white"/>
<path d="M107.745 25.2622L104.558 20.8185H101.713V25.2622H99.4652V12.5032H105.218C105.896 12.4945 106.572 12.5905 107.22 12.7876C107.773 12.9517 108.287 13.2238 108.731 13.5877C109.137 13.9371 109.456 14.3744 109.663 14.8655C109.891 15.3977 110.005 15.971 109.997 16.549C110.004 17.0363 109.927 17.5212 109.766 17.9822C109.476 18.7908 108.909 19.4736 108.163 19.9122C107.779 20.1454 107.363 20.323 106.928 20.4392L110.43 25.2622H107.745ZM107.005 15.0664C106.425 14.674 105.728 14.4845 105.026 14.528H101.717V18.8277H105.061C105.749 18.8598 106.427 18.6533 106.978 18.2438C107.214 18.054 107.401 17.8127 107.527 17.539C107.652 17.2653 107.711 16.9667 107.699 16.6665C107.721 16.364 107.669 16.0609 107.547 15.7825C107.426 15.5041 107.239 15.2585 107.001 15.0664H107.005Z" fill="white"/>
<path d="M130.675 25.2621H128.278L126.97 22.1832H120.869L119.542 25.2621H117.218L122.897 12.4121H125.007L130.675 25.2621ZM123.91 15.0928L121.697 20.1964H126.157L123.91 15.0928Z" fill="white"/>
<path d="M144.774 22.1269H144.701L140.663 16.1513V25.2513H138.427V12.5037H140.843L144.755 18.5438L148.682 12.5113H151.083V25.2626H148.836V16.1133L144.774 22.1269Z" fill="white"/>
<path d="M172.374 21.4175C172.05 22.2031 171.573 22.9181 170.97 23.522C170.359 24.1308 169.633 24.6163 168.834 24.9515C167.971 25.3126 167.041 25.4933 166.104 25.4824C165.169 25.4929 164.241 25.3163 163.377 24.9628C162.582 24.6345 161.862 24.1538 161.256 23.5486C160.66 22.9465 160.191 22.2339 159.875 21.4518C159.21 19.814 159.21 17.9858 159.875 16.3481C160.197 15.562 160.672 14.8467 161.275 14.2437C161.912 13.6115 162.671 13.1124 163.507 12.7763C164.343 12.4402 165.24 12.2739 166.142 12.2872C167.079 12.2744 168.008 12.4512 168.873 12.8067C169.664 13.1304 170.381 13.6076 170.982 14.21C171.584 14.8124 172.057 15.5278 172.374 16.314C173.039 17.9517 173.039 19.7799 172.374 21.4175ZM170.169 17.1444C169.966 16.6076 169.66 16.1145 169.268 15.6921C168.875 15.2757 168.402 14.9417 167.876 14.7101C167.32 14.4583 166.715 14.3289 166.104 14.3309C165.516 14.3239 164.934 14.439 164.395 14.669C163.856 14.8989 163.372 15.2385 162.974 15.6656C162.586 16.0849 162.282 16.574 162.081 17.1064C161.651 18.2409 161.651 19.4906 162.081 20.625C162.283 21.1597 162.586 21.6513 162.974 22.0735C163.367 22.4901 163.84 22.8239 164.366 23.0556C164.921 23.3068 165.524 23.4362 166.134 23.4347C166.74 23.442 167.34 23.3217 167.895 23.0822C168.414 22.8553 168.881 22.5262 169.268 22.1153C169.657 21.6971 169.961 21.2075 170.161 20.6743C170.591 19.5414 170.591 18.2927 170.161 17.1595L170.169 17.1444Z" fill="white"/>
<path d="M191.989 19.7382C192.009 20.5868 191.88 21.4325 191.606 22.237C191.37 22.9079 190.989 23.52 190.491 24.0303C190.003 24.5182 189.407 24.8869 188.749 25.1073C188.008 25.3531 187.23 25.4736 186.448 25.4636C185.677 25.4729 184.911 25.3524 184.181 25.1073C183.529 24.8862 182.937 24.5219 182.448 24.0418C181.953 23.5429 181.576 22.9421 181.343 22.2824C181.071 21.4998 180.941 20.6756 180.96 19.8481V12.5037H183.207V19.7571C183.207 20.9477 183.497 21.8527 184.078 22.472C184.389 22.789 184.765 23.0365 185.181 23.1974C185.597 23.3583 186.044 23.4289 186.49 23.4047C186.929 23.428 187.369 23.3605 187.779 23.2063C188.192 23.0523 188.565 22.8152 188.88 22.5099C189.463 21.9159 189.754 21.0311 189.754 19.8557V12.5037H192.002L191.989 19.7382Z" fill="white"/>
<path d="M209.627 12.5037H211.873V25.2626H209.979L202.881 16.1854V25.2626H200.629V12.5037H202.727L209.631 21.3268L209.627 12.5037Z" fill="white"/>
<path d="M226.185 25.2626H223.884V14.5815H219.806V12.5037H230.278V14.5815H226.185V25.2626Z" fill="white"/>
<defs>
<linearGradient id="paint0_linear_2359_13486" x1="0.0594191" y1="36.2845" x2="33.1258" y2="36.2845" gradientUnits="userSpaceOnUse">
<stop stop-color="#F79632"/>
<stop offset="1" stop-color="#FFD028"/>
</linearGradient>
<linearGradient id="paint1_linear_2359_13486" x1="1.51129" y1="56.5959" x2="30.3132" y2="11.0811" gradientUnits="userSpaceOnUse">
<stop stop-color="#F79632"/>
<stop offset="1" stop-color="#FFD028"/>
</linearGradient>
</defs>
</svg>
