<svg width="332" height="203" viewBox="0 0 332 203" fill="none" xmlns="http://www.w3.org/2000/svg">
<mask id="mask0_2359_13480" style="mask-type:alpha" maskUnits="userSpaceOnUse" x="0" y="0" width="332" height="203">
<mask id="path-1-inside-1_2359_13480" fill="white">
<path d="M0 0H308C321.255 0 332 10.7452 332 24V203H0V0Z"/>
</mask>
<path d="M0 0H308C321.255 0 332 10.7452 332 24V203H0V0Z" fill="url(#paint0_linear_2359_13480)"/>
<path d="M0 0H332H0ZM332 206H0V200H332V206ZM0 203V0V203ZM332 0V203V0Z" fill="#F1C111" mask="url(#path-1-inside-1_2359_13480)"/>
</mask>
<g mask="url(#mask0_2359_13480)">
<mask id="path-3-inside-2_2359_13480" fill="white">
<path d="M0 0H308C321.255 0 332 10.7452 332 24V203H0V0Z"/>
</mask>
<path d="M0 0H308C321.255 0 332 10.7452 332 24V203H0V0Z" fill="url(#paint1_linear_2359_13480)"/>
<path d="M0 0H332H0ZM332 206H0V200H332V206ZM0 203V0V203ZM332 0V203V0Z" fill="#F1C111" mask="url(#path-3-inside-2_2359_13480)"/>
<g style="mix-blend-mode:luminosity" opacity="0.05">
<path d="M243.235 71.5026C240.03 83.5057 233.203 94.235 223.662 102.264C214.123 110.294 202.322 115.24 189.832 116.446L204.645 61.1625L204.37 61.089C205.83 55.6426 205.04 49.8329 202.177 44.939C199.314 40.0444 194.611 36.4648 189.102 34.9887C183.594 33.5129 177.731 34.2613 172.804 37.0687C167.877 39.875 164.29 44.512 162.83 49.9584L162.555 49.8845L119.689 209.861C110.711 243.366 75.6479 263.294 42.0455 253.145C27.079 248.631 14.3646 238.677 6.46296 225.29C-1.439 211.904 -3.94044 196.078 -0.538006 181.002C-0.329694 180.225 -0.1265 179.466 0.0821078 178.688C3.29008 166.689 10.1227 155.966 19.6687 147.948C29.2147 139.93 41.0194 135 53.5085 133.814L38.091 191.353L38.2287 191.39C37.4347 196.633 38.6237 201.993 41.5676 206.445C44.5118 210.895 49.0041 214.123 54.1847 215.511C59.3652 216.899 64.8699 216.35 69.6446 213.968C74.4198 211.585 78.1295 207.537 80.0636 202.599L80.1816 202.631L123.662 40.3591C132.723 6.54396 168.463 -13.3911 202.205 -2.66175C217.325 2.17117 230.02 12.5692 237.659 26.3768C245.297 40.1844 247.294 56.3429 243.235 71.5026Z" fill="url(#paint2_linear_2359_13480)"/>
</g>
<g style="mix-blend-mode:luminosity" opacity="0.05">
<path d="M329.265 47.2482C333.156 142.87 252.585 208.565 167.7 198.784C170.333 188.888 175.585 179.881 182.915 172.687C190.243 165.494 199.387 160.374 209.403 157.854C255.338 146.444 291.555 104.67 288.675 49.2523C287.192 20.8021 265.893 -15.2084 241.405 -30.4192C177.491 -70.4708 100.001 -37.0461 81.7693 28.2424L71.4371 66.8026C69.683 73.2726 66.0659 79.0884 61.0252 83.5427C55.9845 87.997 49.7374 90.8981 43.043 91.8938L42.8463 91.8411C35.4944 93.019 28.2945 94.9673 21.3676 97.6538L42.7665 17.7917C67.3023 -73.777 175.762 -120.745 264.789 -64.1901C283.789 -52.0924 299.576 -35.6385 310.804 -16.2335C322.032 3.17192 328.366 24.9521 329.265 47.2482Z" fill="url(#paint3_linear_2359_13480)"/>
</g>
</g>
<defs>
<linearGradient id="paint0_linear_2359_13480" x1="83" y1="203" x2="153.946" y2="-29.0602" gradientUnits="userSpaceOnUse">
<stop stop-color="#1D2939"/>
<stop offset="1" stop-color="#344054"/>
</linearGradient>
<linearGradient id="paint1_linear_2359_13480" x1="83" y1="203" x2="153.946" y2="-29.0602" gradientUnits="userSpaceOnUse">
<stop stop-color="#1D2939"/>
<stop offset="1" stop-color="#344054"/>
</linearGradient>
<linearGradient id="paint2_linear_2359_13480" x1="21.5824" y1="98.2902" x2="221.69" y2="151.909" gradientUnits="userSpaceOnUse">
<stop stop-color="#F79632"/>
<stop offset="1" stop-color="#FFD028"/>
</linearGradient>
<linearGradient id="paint3_linear_2359_13480" x1="-2.56708" y1="223.563" x2="245.537" y2="-5.17515" gradientUnits="userSpaceOnUse">
<stop stop-color="#F79632"/>
<stop offset="1" stop-color="#FFD028"/>
</linearGradient>
</defs>
</svg>
